{"title":"Arthur The War of the Two Worlds 2010 DVDRip Xvid 5.1 AC3 LKRG","uid":6105558,"size":1364441365,"categoryP":"video","categoryS":"movies","magnet":"?xt=urn:btih:f79b46b6a1254fddf4082556e2e02bcc7942ce80&amp;dn=Arthur+The+War+of+the+Two+Worlds+2010+DVDRip+Xvid+5.1+AC3+LKRG&amp;tr=udp%3A%2F%2Ftracker.openbittorrent.com%3A80&amp;tr=udp%3A%2F%2Fopen.demonii.com%3A1337&amp;tr=udp%3A%2F%2Ftracker.coppersurfer.tk%3A6969&amp;tr=udp%3A%2F%2Fexodus.desync.com%3A6969","seeders":0,"leechers":1,"uploader":".BONE.","files":4,"time":1295142404,"description":"Encoded By .......:Xclusive\nRuntime ..........:1:36\nIMDb URL .........:http://www.imdb.com/title/tt0940656/\nLanguage .........:English\nFile Size ........:1.27gb\n\n\n\nAudio/Video\n\nVideo\n\nID : 0\nFormat : MPEG-4 Visual\nFormat profile : Advanced Simple@L5\nFormat settings, BVOP : Yes\nFormat settings, QPel : No\nFormat settings, GMC : No warppoints\nFormat settings, Matrix : Default (H.263)\nCodec ID : XVID\nCodec ID/Hint : XviD\nDuration : 1h 35mn\nBit rate : 1 500 Kbps\nWidth : 672 pixels\nHeight : 288 pixels\nDisplay aspect ratio : 2.35:1\nFrame rate : 23.976 fps\nColor space : YUV\nChroma subsampling : 4:2:0\nBit depth : 8 bits\nScan type : Progressive\nBits/(Pixel*Frame) : 0.323\nStream size : 1.01 GiB (79%)\nWriting library : XviD 1.2.1 (UTC 2008-12-04)\n\nAudio\n\nID : 1\nFormat : AC-3\nFormat/Info : Audio Coding 3\nMode extension : CM (complete main)\nCodec ID : 2000\nDuration : 1h 36mn\nBit rate mode : Constant\nBit rate : 384 Kbps\nChannel(s) : 6 channels\nChannel positions : Front: L C R, Side: L R, LFE\nSampling rate : 48.0 KHz\nBit depth : 16 bits\nStream size : 264 MiB (20%)\nAlignment : Aligned on interleaves\nInterleave, duration : 32 ms (0.77 video frame)\n","torrent":{"xt":"urn:btih:f79b46b6a1254fddf4082556e2e02bcc7942ce80","amp;dn":"Arthur+The+War+of+the+Two+Worlds+2010+DVDRip+Xvid+5.1+AC3+LKRG","amp;tr":["udp%3A%2F%2Ftracker.openbittorrent.com%3A80","udp%3A%2F%2Fopen.demonii.com%3A1337","udp%3A%2F%2Ftracker.coppersurfer.tk%3A6969","udp%3A%2F%2Fexodus.desync.com%3A6969"],"infoHash":"f79b46b6a1254fddf4082556e2e02bcc7942ce80","infoHashBuffer":{"type":"Buffer","data":[247,155,70,182,161,37,79,221,244,8,37,86,226,224,43,204,121,66,206,128]},"announce":[],"urlList":[]}}